<mxfile host="app.diagrams.net" modified="2024-01-04T08:09:09.422Z" agent="Mozilla/5.0 (Macintosh; Intel Mac OS X 10.15; rv:121.0) Gecko/20100101 Firefox/121.0" version="22.1.16" etag="aB-1biPko5tWHx0GY5_6" type="github">
  <diagram name="Page-1" id="JL0gaD15WlNdM7ieUkvZ">
    <mxGraphModel>
      <root>
        <mxCell id="0" />
        <mxCell id="1" parent="0" />
      </root>
    </mxGraphModel>
  </diagram>
</mxfile>
